<svg 
 xmlns="http://www.w3.org/2000/svg"
 xmlns:xlink="http://www.w3.org/1999/xlink"
 width="32px" height="27px">
<defs>
<filter id="Filter_0">
    <feFlood flood-color="rgb(20, 20, 20)" flood-opacity="1" result="floodOut" />
    <feComposite operator="atop" in="floodOut" in2="SourceGraphic" result="compOut" />
    <feBlend mode="normal" in="compOut" in2="SourceGraphic" />
</filter>

</defs>
<g filter="url(#Filter_0)">
<path fill-rule="evenodd"  fill="rgb(205, 191, 137)"
 d="M19.899,18.507 C19.457,18.507 19.078,18.664 18.764,18.979 C18.449,19.295 18.292,19.673 18.292,20.114 C18.292,20.557 18.449,20.935 18.764,21.249 C19.078,21.565 19.457,21.721 19.899,21.721 C20.341,21.721 20.719,21.565 21.034,21.249 C21.349,20.935 21.506,20.557 21.506,20.114 C21.506,19.673 21.349,19.295 21.034,18.979 C20.719,18.664 20.341,18.507 19.899,18.507 ZM25.042,18.507 C24.600,18.507 24.221,18.664 23.907,18.979 C23.592,19.295 23.435,19.673 23.435,20.114 C23.435,20.557 23.592,20.935 23.907,21.249 C24.221,21.565 24.600,21.721 25.042,21.721 C25.484,21.721 25.862,21.565 26.177,21.249 C26.491,20.935 26.649,20.557 26.649,20.114 C26.649,19.673 26.491,19.295 26.177,18.979 C25.862,18.664 25.484,18.507 25.042,18.507 ZM28.708,23.780 C28.581,23.909 28.430,23.972 28.256,23.972 L3.828,23.972 C3.653,23.972 3.503,23.909 3.376,23.780 C3.248,23.654 3.185,23.504 3.185,23.329 L3.185,16.901 C3.185,16.726 3.248,16.576 3.376,16.448 C3.503,16.321 3.653,16.257 3.828,16.257 L28.256,16.257 C28.430,16.257 28.581,16.321 28.708,16.448 C28.835,16.576 28.899,16.726 28.899,16.901 L28.899,23.329 C28.899,23.504 28.835,23.654 28.708,23.780 ZM7.343,4.003 C7.397,3.829 7.504,3.684 7.665,3.571 C7.825,3.457 7.999,3.400 8.187,3.400 L23.897,3.400 C24.084,3.400 24.258,3.457 24.419,3.571 C24.580,3.684 24.687,3.829 24.741,4.003 L27.894,13.686 L4.189,13.686 L7.343,4.003 ZM31.149,15.394 L27.191,3.219 C26.964,2.510 26.542,1.934 25.926,1.491 C25.310,1.051 24.633,0.828 23.897,0.828 L8.187,0.828 C7.450,0.828 6.774,1.051 6.158,1.491 C5.542,1.934 5.120,2.510 4.892,3.219 L0.935,15.394 C0.720,16.063 0.613,16.566 0.613,16.901 L0.613,23.329 C0.613,24.213 0.928,24.969 1.558,25.599 C2.187,26.228 2.944,26.543 3.828,26.543 L28.256,26.543 C29.140,26.543 29.897,26.228 30.526,25.599 C31.156,24.969 31.470,24.213 31.470,23.329 L31.470,16.901 C31.470,16.566 31.363,16.063 31.149,15.394 L31.149,15.394 Z"/>
</g>
</svg>