<svg xmlns="http://www.w3.org/2000/svg" xmlns:xlink="http://www.w3.org/1999/xlink" width="16" height="10.031" viewBox="0 0 16 10.031">
  <metadata><?xpacket begin="﻿" id="W5M0MpCehiHzreSzNTczkc9d"?>
<x:xmpmeta xmlns:x="adobe:ns:meta/" x:xmptk="Adobe XMP Core 5.6-c140 79.160451, 2017/05/06-01:08:21        ">
   <rdf:RDF xmlns:rdf="http://www.w3.org/1999/02/22-rdf-syntax-ns#">
      <rdf:Description rdf:about=""/>
   </rdf:RDF>
</x:xmpmeta>
                                                                                                    
                                                                                                    
                                                                                                    
                                                                                                    
                                                                                                    
                                                                                                    
                                                                                                    
                                                                                                    
                                                                                                    
                                                                                                    
                                                                                                    
                                                                                                    
                                                                                                    
                                                                                                    
                                                                                                    
                                                                                                    
                                                                                                    
                                                                                                    
                                                                                                    
                                                                                                    
                           
<?xpacket end="w"?></metadata>
<defs>
    <style>
      .cls-1 {
        fill: #272727;
        fill-rule: evenodd;
        filter: url(#filter);
      }
    </style>
    <filter id="filter" x="0.094" y="0.438" width="16" height="10.031" filterUnits="userSpaceOnUse">
      <feFlood result="flood" flood-color="#909090"/>
      <feComposite result="composite" operator="in" in2="SourceGraphic"/>
      <feBlend result="blend" in2="SourceGraphic"/>
    </filter>
  </defs>
  <path id="icon" class="cls-1" d="M14.518,1.093v0.97H10.525V1.093h3.992ZM12.549,4.422a1.461,1.461,0,0,1,1.563,1.523H10.924A1.529,1.529,0,0,1,12.549,4.422Zm0.125,4.57a1.611,1.611,0,0,1-1.75-1.812h5.141c0.008-.117.016-0.242,0.016-0.367,0-2.109-1.234-3.867-3.469-3.867A3.583,3.583,0,0,0,8.963,6.719a3.474,3.474,0,0,0,3.648,3.742,3.177,3.177,0,0,0,3.336-2.4H14.221A1.621,1.621,0,0,1,12.674,8.992ZM2.244,8.6V5.891H4.6A1.316,1.316,0,0,1,6.158,7.3c0,0.992-.719,1.305-1.6,1.305H2.244Zm0-4.2v-2.3H4.275c0.781,0,1.484.219,1.484,1.125a1.126,1.126,0,0,1-1.32,1.172h-2.2ZM0.08,0.429v9.845H4.854c1.789,0,3.469-.86,3.469-2.86a2.376,2.376,0,0,0-1.8-2.492A2.108,2.108,0,0,0,7.869,2.867c0-1.962-1.461-2.438-3.148-2.438H0.08Z" transform="translate(-0.094 -0.438)"/>
</svg>
