<svg 
 xmlns="http://www.w3.org/2000/svg"
 xmlns:xlink="http://www.w3.org/1999/xlink"
 width="31px" height="27px">
<path fill-rule="evenodd" 
 d="M16.471,12.755 C16.471,13.056 16.237,13.290 15.936,13.290 C15.048,13.290 14.329,14.010 14.329,14.897 C14.329,15.199 14.094,15.433 13.793,15.433 C13.492,15.433 13.257,15.199 13.257,14.897 C13.257,13.425 14.463,12.219 15.936,12.219 C16.237,12.219 16.471,12.454 16.471,12.755 ZM20.221,14.931 C20.221,12.571 18.296,10.646 15.936,10.646 C13.575,10.646 11.650,12.571 11.650,14.931 C11.650,17.290 13.575,19.217 15.936,19.217 C18.296,19.217 20.221,17.290 20.221,14.931 ZM3.080,24.539 L3.080,22.396 L28.791,22.396 L28.791,24.539 L3.080,24.539 ZM22.363,14.931 C22.363,18.479 19.484,21.359 15.936,21.359 C12.387,21.359 9.508,18.479 9.508,14.931 C9.508,11.382 12.387,8.503 15.936,8.503 C19.484,8.503 22.363,11.382 22.363,14.931 ZM5.223,4.184 L5.223,2.042 L11.650,2.042 L11.650,4.184 L5.223,4.184 ZM3.080,7.399 L3.080,5.256 L13.860,5.256 L14.931,3.114 L28.791,3.114 L28.791,5.423 L28.791,7.399 L3.080,7.399 ZM30.934,3.114 C30.934,1.925 29.979,0.970 28.791,0.970 L3.080,0.970 C1.892,0.970 0.937,1.925 0.937,3.114 L0.937,24.539 C0.937,25.727 1.892,26.682 3.080,26.682 L28.791,26.682 C29.979,26.682 30.934,25.727 30.934,24.539 L30.934,3.114 Z"/>
</svg>