<svg xmlns="http://www.w3.org/2000/svg" xmlns:xlink="http://www.w3.org/1999/xlink" width="12" height="12" viewBox="0 0 12 12">
  <metadata><?xpacket begin="﻿" id="W5M0MpCehiHzreSzNTczkc9d"?>
<x:xmpmeta xmlns:x="adobe:ns:meta/" x:xmptk="Adobe XMP Core 5.6-c140 79.160451, 2017/05/06-01:08:21        ">
   <rdf:RDF xmlns:rdf="http://www.w3.org/1999/02/22-rdf-syntax-ns#">
      <rdf:Description rdf:about=""/>
   </rdf:RDF>
</x:xmpmeta>
                
<?xpacket end="w"?></metadata>
<defs>
    <style>
      .cls-1 {
        fill: #272727;
        fill-rule: evenodd;
        filter: url(#filter);
      }
    </style>
    <filter id="filter" x="0.094" y="0.438" width="12" height="12" filterUnits="userSpaceOnUse">
      <feFlood result="flood" flood-color="#909090"/>
      <feComposite result="composite" operator="in" in2="SourceGraphic"/>
      <feBlend result="blend" in2="SourceGraphic"/>
    </filter>
  </defs>
  <path id="icon" class="cls-1" d="M8.08,11.164A5.136,5.136,0,0,1,2.814,10.4s0.07,0.047.117,0.086c0.984-2.141,4.024-3.2,4.024-3.2s0.023-.008.031-0.008A21.594,21.594,0,0,1,8.08,11.164ZM6.635,6.421c-0.062.023-.133,0.039-0.2,0.063A8.116,8.116,0,0,0,2.268,9.868h0A5.125,5.125,0,0,1,.955,6.445,1.145,1.145,0,0,1,.963,6.281a18.821,18.821,0,0,0,5.258-.727C6.369,5.844,6.51,6.133,6.635,6.421ZM5.8,4.765a19.419,19.419,0,0,1-4.734.625A5.134,5.134,0,0,1,3.893,1.812,31,31,0,0,1,5.8,4.765Zm5.344,2.493a5.142,5.142,0,0,1-2.2,3.437,22.875,22.875,0,0,0-1-3.664A7.608,7.608,0,0,1,11.143,7.258ZM4.854,1.469a0.028,0.028,0,0,0-.016.008A0.016,0.016,0,0,1,4.854,1.469ZM9.463,2.6A5.527,5.527,0,0,1,6.791,4.453,24.894,24.894,0,0,0,4.869,1.469,5.191,5.191,0,0,1,6.08,1.32,5.091,5.091,0,0,1,9.463,2.6ZM11.205,6.39a12.026,12.026,0,0,0-3.57-.163C7.6,6.14,7.564,6.047,7.525,5.961c-0.109-.25-0.227-0.5-0.344-0.742a6.675,6.675,0,0,0,2.859-2.031A5.139,5.139,0,0,1,11.205,6.39ZM12.08,6.445a6,6,0,1,0-6,6A6,6,0,0,0,12.08,6.445Z" transform="translate(-0.094 -0.438)"/>
</svg>
