<svg 
 xmlns="http://www.w3.org/2000/svg"
 xmlns:xlink="http://www.w3.org/1999/xlink"
 width="49px" height="38px">
<path fill-rule="evenodd"  fill="rgb(246, 177, 56)"
 d="M45.129,34.044 C44.960,34.215 44.759,34.298 44.527,34.298 L5.098,34.298 C4.866,34.298 4.665,34.215 4.496,34.044 C4.326,33.876 4.241,33.674 4.241,33.441 L4.241,12.871 C4.812,13.513 5.428,14.103 6.089,14.638 C10.875,18.317 14.678,21.334 17.500,23.691 C18.411,24.460 19.151,25.059 19.723,25.487 C20.295,25.914 21.067,26.348 22.040,26.786 C23.013,27.223 23.929,27.442 24.786,27.442 L24.812,27.442 L24.839,27.442 C25.696,27.442 26.611,27.223 27.585,26.786 C28.558,26.348 29.330,25.914 29.902,25.487 C30.473,25.059 31.214,24.460 32.125,23.691 C34.946,21.334 38.750,18.317 43.536,14.638 C44.196,14.103 44.812,13.513 45.384,12.871 L45.384,33.441 C45.384,33.674 45.299,33.876 45.129,34.044 ZM44.138,8.812 C43.308,10.107 42.411,11.138 41.446,11.906 C38.000,14.620 34.419,17.450 30.705,20.397 C30.598,20.487 30.286,20.750 29.768,21.187 C29.250,21.625 28.839,21.959 28.536,22.191 C28.232,22.425 27.835,22.705 27.344,23.036 C26.852,23.365 26.402,23.611 25.991,23.772 C25.580,23.932 25.196,24.013 24.839,24.013 L24.812,24.013 L24.786,24.013 C24.428,24.013 24.045,23.932 23.634,23.772 C23.223,23.611 22.772,23.365 22.281,23.036 C21.790,22.705 21.393,22.425 21.089,22.191 C20.785,21.959 20.375,21.625 19.857,21.187 C19.339,20.750 19.027,20.487 18.920,20.397 C15.205,17.450 11.625,14.620 8.179,11.906 C5.554,9.834 4.241,7.299 4.241,4.299 C4.241,4.066 4.326,3.866 4.496,3.696 C4.665,3.527 4.866,3.442 5.098,3.442 L44.527,3.442 C44.669,3.442 44.795,3.464 44.902,3.509 C45.009,3.553 45.089,3.621 45.143,3.710 C45.196,3.799 45.245,3.880 45.290,3.950 C45.335,4.022 45.361,4.134 45.371,4.286 C45.379,4.437 45.384,4.553 45.384,4.634 C45.384,4.713 45.384,4.834 45.384,4.995 C45.384,5.156 45.384,5.254 45.384,5.291 C45.384,6.343 44.969,7.518 44.138,8.812 ZM47.553,1.272 C46.714,0.432 45.705,0.013 44.527,0.013 L5.098,0.013 C3.920,0.013 2.911,0.432 2.071,1.272 C1.232,2.111 0.813,3.121 0.813,4.299 L0.813,33.441 C0.813,34.620 1.232,35.629 2.071,36.468 C2.911,37.307 3.920,37.728 5.098,37.728 L44.527,37.728 C45.705,37.728 46.714,37.307 47.553,36.468 C48.393,35.629 48.813,34.620 48.813,33.441 L48.813,4.299 C48.813,3.121 48.393,2.111 47.553,1.272 Z"/>
</svg>