<svg xmlns="http://www.w3.org/2000/svg" xmlns:xlink="http://www.w3.org/1999/xlink" width="12.344" height="13" viewBox="0 0 12.344 13">
  <metadata><?xpacket begin="﻿" id="W5M0MpCehiHzreSzNTczkc9d"?>
<x:xmpmeta xmlns:x="adobe:ns:meta/" x:xmptk="Adobe XMP Core 5.6-c140 79.160451, 2017/05/06-01:08:21        ">
   <rdf:RDF xmlns:rdf="http://www.w3.org/1999/02/22-rdf-syntax-ns#">
      <rdf:Description rdf:about=""/>
   </rdf:RDF>
</x:xmpmeta>
                                                                                                    
                                                                                                    
                                                                                                    
                                                                                                    
                                                                                                    
                                                                                                    
                                                                                                    
                                                                                                    
                                                                                                    
                                                                                                    
                                                                                                    
                                                                                                    
                                                                                                    
                                                                                                    
                                                                                                    
                                                                                                    
                                                                                                    
                                                                                                    
                                                                                                    
                                                                                                    
                           
<?xpacket end="w"?></metadata>
<defs>
    <style>
      .cls-1 {
        fill: #272727;
        fill-rule: evenodd;
        filter: url(#filter);
      }
    </style>
    <filter id="filter" x="0.344" y="0.438" width="12.344" height="13" filterUnits="userSpaceOnUse">
      <feFlood result="flood" flood-color="#909090"/>
      <feComposite result="composite" operator="in" in2="SourceGraphic"/>
      <feBlend result="blend" in2="SourceGraphic"/>
    </filter>
  </defs>
  <path id="icon" class="cls-1" d="M5.822,6.664c0-.992,1.852-1.218,1.852-3.243A2.859,2.859,0,0,0,6.5,1.133H7.525L8.6,0.445H5.338A4.842,4.842,0,0,0,2.213,1.461,3.052,3.052,0,0,0,1.158,3.726,2.646,2.646,0,0,0,3.9,6.391c0.18,0,.352-0.016.531-0.031a1.6,1.6,0,0,0-.164.664A1.82,1.82,0,0,0,4.76,8.172,6.883,6.883,0,0,0,1.6,8.953,2.49,2.49,0,0,0,.33,11.023a1.969,1.969,0,0,0,.289,1.024,3.7,3.7,0,0,0,3.266,1.4,4.479,4.479,0,0,0,3.976-1.851,2.727,2.727,0,0,0,.375-1.352C8.236,8.039,5.822,7.7,5.822,6.664Zm-1.141-.75c-1.406,0-2.07-1.845-2.07-3.016a1.98,1.98,0,0,1,.367-1.25,1.505,1.505,0,0,1,1.156-.562c1.406,0,2.086,1.961,2.086,3.116a1.743,1.743,0,0,1-.414,1.243A1.685,1.685,0,0,1,4.682,5.914ZM4.7,12.734c-1.266,0-2.914-.547-2.914-2.07,0-1.609,1.891-2.016,3.164-2.016a2.892,2.892,0,0,1,.375.016c0.758,0.546,1.8,1.188,1.8,2.242C7.127,12.25,5.854,12.734,4.7,12.734ZM11.025,5.89V4.2h-0.82V5.89H8.549V6.734h1.656V8.446h0.82V6.734h1.664V5.89H11.025Z" />
</svg>
