<svg 
 xmlns="http://www.w3.org/2000/svg"
 xmlns:xlink="http://www.w3.org/1999/xlink"
 width="36px" height="29px">
<path fill-rule="evenodd"
 d="M4.486,11.684 L9.893,11.684 L14.914,22.815 L4.486,11.684 ZM18.078,24.606 L12.236,11.684 L23.920,11.684 L18.078,24.606 ZM9.943,9.541 L4.151,9.541 L8.972,3.113 L13.358,3.113 L9.943,9.541 ZM21.242,22.815 L26.263,11.684 L31.670,11.684 L21.242,22.815 ZM12.370,9.541 L15.785,3.113 L20.371,3.113 L23.786,9.541 L12.370,9.541 ZM26.213,9.541 L22.798,3.113 L27.184,3.113 L32.005,9.541 L26.213,9.541 ZM28.573,1.406 C28.373,1.122 28.054,0.971 27.720,0.971 L8.437,0.971 C8.102,0.971 7.784,1.122 7.583,1.406 L1.155,9.976 C0.837,10.378 0.871,10.964 1.222,11.349 L17.291,28.490 C17.492,28.707 17.777,28.824 18.078,28.824 C18.379,28.824 18.664,28.707 18.865,28.490 L34.934,11.349 C35.286,10.964 35.319,10.378 35.001,9.976 L28.573,1.406 Z"/>
</svg>