<svg 
 xmlns="http://www.w3.org/2000/svg"
 xmlns:xlink="http://www.w3.org/1999/xlink"
 width="170px" height="543px">
<path fill-rule="evenodd"  fill="rgb(217, 217, 217)"
 d="M89.611,542.999 L80.413,542.999 L0.017,542.999 L0.017,-0.001 L80.413,-0.001 L89.611,-0.001 L170.007,-0.001 L170.007,542.999 L89.611,542.999 ZM160.072,9.813 L89.611,9.813 L89.611,57.256 L80.413,57.256 L80.413,9.813 L9.952,9.813 L9.952,533.186 L80.413,533.186 L80.413,485.745 L89.611,485.745 L89.611,533.186 L160.072,533.186 L160.072,9.813 ZM71.898,395.910 L71.898,374.360 L48.293,374.360 L48.293,360.700 L71.898,360.700 L71.898,351.867 L85.010,351.867 L85.010,360.700 L123.161,360.700 L123.161,395.910 C123.161,403.762 120.856,410.160 116.248,415.105 C111.636,420.049 105.398,422.525 97.529,422.525 C89.661,422.525 83.422,420.049 78.814,415.105 C74.203,410.160 71.898,403.762 71.898,395.910 ZM85.010,394.852 C85.010,398.854 86.105,402.189 88.290,404.860 C90.477,407.528 93.556,408.863 97.529,408.863 C101.583,408.863 104.683,407.550 106.829,404.918 C108.974,402.289 110.048,398.932 110.048,394.852 L110.048,374.360 L85.010,374.360 L85.010,394.852 ZM48.293,286.176 L62.361,280.546 L62.361,249.267 L48.293,243.580 L48.293,228.930 L110.761,255.897 L110.761,238.940 L123.161,238.940 L123.161,269.557 L48.293,300.882 L48.293,286.176 ZM74.760,275.613 L101.415,264.969 L74.760,254.107 L74.760,275.613 ZM61.406,175.588 L48.293,175.588 L48.293,113.529 L110.048,152.038 L110.048,115.648 L123.161,115.648 L123.161,176.093 L61.406,137.026 L61.406,175.588 Z"/>
</svg>