<svg width="170" height="53" viewBox="0 0 170 53" fill="none" xmlns="http://www.w3.org/2000/svg">
<g clip-path="url(#clip0)">
<path fill-rule="evenodd" clip-rule="evenodd" d="M0 52.994V27.93V25.063V-0.00300002H170V25.063V27.93V52.994H0ZM166.928 27.93H152.075V25.063H166.928V3.094H3.072V25.063H17.925V27.93H3.072V49.897H166.928V27.93ZM36.207 18.691V14.603H55.13L42.899 33.855H54.972V37.945H35.543L47.599 18.691H36.207ZM74.806 18.469V14.603H84.392L94.199 37.945H89.595L87.832 33.558H78.04L76.259 37.945H71.673L80.115 18.469H74.806ZM79.555 29.692H86.288L82.955 21.383L79.555 29.692ZM112.927 14.603H123.95C126.408 14.603 128.411 15.321 129.959 16.757C131.507 18.196 132.282 20.141 132.282 22.594C132.282 25.046 131.507 26.992 129.959 28.428C128.411 29.866 126.408 30.585 123.95 30.585H117.203V37.945H112.927V30.585H110.161V26.497H112.927V14.603ZM117.203 26.497H123.619C124.872 26.497 125.916 26.155 126.752 25.475C127.587 24.793 128.005 23.833 128.005 22.594C128.005 21.331 127.594 20.364 126.77 19.695C125.947 19.026 124.896 18.691 123.619 18.691H117.203V26.497Z" fill="#141414"/>
</g>
<defs>
<clipPath id="clip0">
<rect width="170" height="53" fill="white"/>
</clipPath>
</defs>
</svg>
