<svg xmlns="http://www.w3.org/2000/svg" width="292.117" height="67.125" viewBox="0 0 292.117 67.125">
    <defs>
        <style>
            .logo-icon{fill:#ef6a19}.logo-text{fill:#272727}
        </style>
    </defs>
    <g id="::_Logo_Image" data-name=":: Logo Image" transform="translate(-4.595 -4.619)">
        <path id="Path_1075" d="M55.834 15.773v-5.4c-.079-.006-.157-.018-.236-.018-5.158.006-10.315 0-15.472.021a59.629 59.629 0 0 0-6.51.36 23.136 23.136 0 0 0-12.733 5.49 33.282 33.282 0 0 0-6.046 6.52A26.025 26.025 0 0 0 10.7 33.251a27.459 27.459 0 0 0-.261 7.021 28.375 28.375 0 0 0 4.85 13.6 28.1 28.1 0 0 0 8.124 8.034 24.991 24.991 0 0 0 8.8 3.392 41.593 41.593 0 0 0 7.908.705q9.238.013 18.474 0a2.867 2.867 0 1 1 .069 5.73q-7.984.008-15.968 0c-1.643 0-3.287 0-4.928-.06a37.285 37.285 0 0 1-13.408-2.8 30.343 30.343 0 0 1-9.806-6.867 34.9 34.9 0 0 1-7.888-12.485 34.173 34.173 0 0 1-1.918-8.533 33.1 33.1 0 0 1 2.376-15.97 30.893 30.893 0 0 1 5.885-9.166 36.758 36.758 0 0 1 9.255-7.507 28.35 28.35 0 0 1 9.042-3.063 60.121 60.121 0 0 1 9.819-.653q8.755-.023 17.51-.007a2.814 2.814 0 0 1 2.739 1.838 3.288 3.288 0 0 1 .2 1.1q.021 5.52.008 11.04a2.866 2.866 0 0 1-2.934 2.921H41.442c-1.4 0-2.792-.053-4.184 0a15.249 15.249 0 0 0-11.228 5.141 16.767 16.767 0 0 0 1.113 23.679 15.244 15.244 0 0 0 7.277 3.669 30.166 30.166 0 0 0 6.558.656q7.282.011 14.564 0h.288V49.6h-.339c-5.112 0-10.222 0-15.334-.014A20.653 20.653 0 0 1 35.3 49.1a9.6 9.6 0 0 1-5.55-3.719 12.955 12.955 0 0 1-2.618-6.329 10.7 10.7 0 0 1 2.206-7.874A10.1 10.1 0 0 1 35.9 27.3a18.487 18.487 0 0 1 4.8-.2c.164.013.329.021.495.021h17.4a2.867 2.867 0 1 1 .208 5.73c-.375.013-.752 0-1.128 0H41.157c-.677 0-1.356-.076-2.033-.086a9.8 9.8 0 0 0-2.993.367 4.837 4.837 0 0 0-3.295 3.968 6.8 6.8 0 0 0 1.764 5.158 4.2 4.2 0 0 0 3.13 1.442c1.215.1 2.436.155 3.655.159 5.727.015 11.453.025 17.179-.006A2.968 2.968 0 0 1 61.59 46.9c-.032 3.5-.008 6.992-.01 10.489a2.868 2.868 0 0 1-3 3.014c-6.056 0-12.112.017-18.168-.01a30.462 30.462 0 0 1-9.957-1.551 21.309 21.309 0 0 1-11.438-9.472 21.527 21.527 0 0 1-2.962-8.79 22.642 22.642 0 0 1 9.327-20.97 20.866 20.866 0 0 1 8.718-3.539 24.036 24.036 0 0 1 4.082-.291c5.809.02 11.619.008 17.428.008.066 0 .138-.01.224-.015z" class="logo-icon" data-name="Path 1075"/>
        <g id="Group_858" data-name="Group 858" transform="translate(81.707 14.123)">
            <path id="Path_1409" d="M18.035 2.265l3.072 3.258a10.864 10.864 0 0 1-8.844 4.1 11.608 11.608 0 0 1-8.27-3.072A10.587 10.587 0 0 1 .72-1.552a10.739 10.739 0 0 1 3.258-8.176 11.358 11.358 0 0 1 8.13-3.088 10.617 10.617 0 0 1 8.657 4.1l-3.1 3.165A6.9 6.9 0 0 0 15.2-7.712a6.992 6.992 0 0 0-3.3-.791 6.309 6.309 0 0 0-4.493 1.847 6.591 6.591 0 0 0-1.939 5.011 6.752 6.752 0 0 0 1.924 5.089 6.563 6.563 0 0 0 4.748 1.862 6.974 6.974 0 0 0 5.895-3.041zm7.323-3.879a10.792 10.792 0 0 1 3.227-8.021 10.878 10.878 0 0 1 7.944-3.181 11.021 11.021 0 0 1 8.006 3.181 10.739 10.739 0 0 1 3.258 8.021 10.777 10.777 0 0 1-3.258 8.052 11.021 11.021 0 0 1-8.006 3.181 10.878 10.878 0 0 1-7.944-3.181 10.83 10.83 0 0 1-3.227-8.052zm4.748 0a7.1 7.1 0 0 0 1.769 4.9 6.078 6.078 0 0 0 4.779 1.986 5.957 5.957 0 0 0 4.7-1.986 7.142 7.142 0 0 0 1.753-4.9 6.971 6.971 0 0 0-1.815-4.856 5.984 5.984 0 0 0-4.639-2 6.089 6.089 0 0 0-4.763 1.984 7.026 7.026 0 0 0-1.784 4.872zM67.032 9.278L58.25-5.4V9.278h-4.623v-21.753h5.554l8.782 14.74v-14.74h4.593V9.278zm28.7-7.013l3.072 3.258a10.864 10.864 0 0 1-8.844 4.1 11.608 11.608 0 0 1-8.27-3.072 10.587 10.587 0 0 1-3.274-8.1 10.739 10.739 0 0 1 3.258-8.177 11.358 11.358 0 0 1 8.13-3.088 10.617 10.617 0 0 1 8.657 4.1l-3.1 3.165A6.9 6.9 0 0 0 92.9-7.712a6.992 6.992 0 0 0-3.3-.791 6.309 6.309 0 0 0-4.484 1.846 6.591 6.591 0 0 0-1.939 5.011 6.752 6.752 0 0 0 1.924 5.089 6.563 6.563 0 0 0 4.748 1.862 6.974 6.974 0 0 0 5.886-3.04zm7.323-3.879a10.792 10.792 0 0 1 3.227-8.021 10.878 10.878 0 0 1 7.944-3.181 11.021 11.021 0 0 1 8.006 3.181 10.739 10.739 0 0 1 3.258 8.021 10.777 10.777 0 0 1-3.258 8.052 11.021 11.021 0 0 1-8.006 3.181 10.878 10.878 0 0 1-7.944-3.181 10.83 10.83 0 0 1-3.224-8.052zm4.748 0a7.1 7.1 0 0 0 1.769 4.9 6.078 6.078 0 0 0 4.779 1.986 5.957 5.957 0 0 0 4.7-1.986 7.142 7.142 0 0 0 1.753-4.9 6.971 6.971 0 0 0-1.815-4.856 5.984 5.984 0 0 0-4.639-2 6.089 6.089 0 0 0-4.763 1.986 7.026 7.026 0 0 0-1.781 4.87zm36.122 10.892L139.643 2.3h-3.693v6.978h-4.624v-21.753h9a9.2 9.2 0 0 1 5.973 1.893 6.336 6.336 0 0 1 2.343 5.213 7.3 7.3 0 0 1-1.164 4.081 7.5 7.5 0 0 1-3.119 2.715l4.81 7.851zm-4.406-17.5h-3.568v6.3h3.568q4.53 0 4.53-3.2a2.65 2.65 0 0 0-1.1-2.343 6.121 6.121 0 0 0-3.43-.759zm15.3 17.5v-21.753h7.168a15.913 15.913 0 0 1 4.391.59 13.343 13.343 0 0 1 3.848 1.8 8.446 8.446 0 0 1 2.839 3.367 11.2 11.2 0 0 1 1.055 4.98 11.475 11.475 0 0 1-1.057 5.038 8.82 8.82 0 0 1-2.824 3.444 13.3 13.3 0 0 1-3.863 1.893 15.027 15.027 0 0 1-4.391.636zm6.454-17.5h-1.831V5.026h1.858q8.13 0 8.13-6.765.002-6.485-8.159-6.485zm18.867 17.5v-21.753h4.593V9.278zm22.621-21.752l8.5 21.752h-4.779L204.745 5h-8.409l-1.707 4.282h-4.779l8.5-21.752zm-2.2 6.268L197.856.9h5.4z" class="logo-text" data-name="Path 1409" transform="translate(-.72 12.816)"/>
            <path id="Path_1408" d="M11.334 2.541l.929 1.059a6.61 6.61 0 0 1-2.257 1.669 6.716 6.716 0 0 1-2.825.607 6.328 6.328 0 0 1-4.769-1.989A6.736 6.736 0 0 1 .506-.948a6.862 6.862 0 0 1 1.887-4.874 6.174 6.174 0 0 1 4.693-2.01 6.053 6.053 0 0 1 4.968 2.276l-.967 1.024a4.82 4.82 0 0 0-4-1.953 4.786 4.786 0 0 0-3.67 1.592 5.6 5.6 0 0 0-1.47 3.945 5.474 5.474 0 0 0 1.489 3.9 4.923 4.923 0 0 0 3.745 1.58 4.969 4.969 0 0 0 4.153-1.991zM40.158 5.67V-.417h-7.225V5.67h-1.441V-7.623h1.441v5.841h7.225v-5.841H41.6V5.67zm21.751 0V-7.623h8.7v1.365h-7.26v4.475H70.4v1.366h-7.051V4.3h7.263v1.37zm34.247-2.94l-3.888-7.149V5.67h-1.441V-7.623h1.4l4.646 8.7 4.646-8.7h1.4V5.67h-1.441V-4.419L97.6 2.73zm27.079 2.94V-7.623h1.441V5.67zm31.725-3.129l.929 1.062a6.61 6.61 0 0 1-2.257 1.669 6.716 6.716 0 0 1-2.825.607 6.328 6.328 0 0 1-4.769-1.991 6.736 6.736 0 0 1-1.906-4.836 6.862 6.862 0 0 1 1.887-4.873 6.174 6.174 0 0 1 4.693-2.01 6.053 6.053 0 0 1 4.968 2.276l-.967 1.024a4.82 4.82 0 0 0-4-1.953 4.786 4.786 0 0 0-3.669 1.593 5.6 5.6 0 0 0-1.47 3.944 5.475 5.475 0 0 0 1.489 3.9 4.923 4.923 0 0 0 3.745 1.583 4.969 4.969 0 0 0 4.152-1.995zm25.676-10.164l5.177 13.293h-1.555l-1.214-3.053h-6.485l-1.176 3.053h-1.574l5.2-13.293zm-.836 1.858l-2.674 7h5.385zM204.946 5.67V-7.623h1.441V4.3h6.466v1.37z" class="logo-text" data-name="Path 1408" transform="translate(2.151 40.653)"/>
        </g>
    </g>
</svg>
