<svg 
 xmlns="http://www.w3.org/2000/svg"
 xmlns:xlink="http://www.w3.org/1999/xlink"
 width="18px" height="17px">
<path fill-rule="evenodd"  fill="rgb(255, 255, 255)"
 d="M12.029,7.089 C12.029,9.570 10.011,11.588 7.531,11.588 C5.051,11.588 3.033,9.570 3.033,7.089 C3.033,4.610 5.051,2.592 7.531,2.592 C10.011,2.592 12.029,4.610 12.029,7.089 ZM17.170,15.444 C17.170,15.103 17.029,14.770 16.798,14.540 L13.355,11.096 C14.168,9.922 14.600,8.516 14.600,7.089 C14.600,3.184 11.437,0.021 7.531,0.021 C3.626,0.021 0.463,3.184 0.463,7.089 C0.463,10.996 3.626,14.158 7.531,14.158 C8.957,14.158 10.363,13.727 11.537,12.914 L14.981,16.347 C15.212,16.588 15.543,16.729 15.885,16.729 C16.588,16.729 17.170,16.147 17.170,15.444 Z"/>
</svg>