<svg 
 xmlns="http://www.w3.org/2000/svg"
 xmlns:xlink="http://www.w3.org/1999/xlink"
 width="28px" height="42px">
<path fill-rule="evenodd"  fill="rgb(246, 177, 56)"
 d="M13.813,21.155 C11.920,21.155 10.304,20.487 8.964,19.146 C7.625,17.808 6.955,16.192 6.955,14.298 C6.955,12.406 7.625,10.791 8.964,9.450 C10.304,8.111 11.920,7.442 13.813,7.442 C15.705,7.442 17.322,8.111 18.661,9.450 C20.000,10.791 20.670,12.406 20.670,14.298 C20.670,16.192 20.000,17.808 18.661,19.146 C17.322,20.487 15.705,21.155 13.813,21.155 ZM23.509,4.603 C20.830,1.924 17.598,0.584 13.813,0.584 C10.027,0.584 6.795,1.924 4.116,4.603 C1.438,7.281 0.098,10.514 0.098,14.298 C0.098,16.246 0.393,17.844 0.982,19.093 L10.759,39.826 C11.027,40.415 11.442,40.879 12.005,41.218 C12.567,41.557 13.170,41.728 13.813,41.728 C14.456,41.728 15.058,41.557 15.621,41.218 C16.183,40.879 16.607,40.415 16.893,39.826 L26.643,19.093 C27.232,17.844 27.527,16.246 27.527,14.298 C27.527,10.514 26.188,7.281 23.509,4.603 Z"/>
</svg>