<svg 
 xmlns="http://www.w3.org/2000/svg"
 xmlns:xlink="http://www.w3.org/1999/xlink"
 width="22px" height="35px">
<path fill-rule="evenodd"  fill="rgb(246, 177, 56)"
 d="M10.813,33.012 C10.224,33.012 9.719,32.803 9.299,32.384 C8.880,31.964 8.670,31.460 8.670,30.870 C8.670,30.281 8.880,29.776 9.299,29.357 C9.719,28.937 10.224,28.728 10.813,28.728 C11.402,28.728 11.906,28.937 12.326,29.357 C12.746,29.776 12.956,30.281 12.956,30.870 C12.956,31.460 12.746,31.964 12.326,32.384 C11.906,32.803 11.402,33.012 10.813,33.012 ZM18.273,27.188 C18.103,27.357 17.902,27.442 17.670,27.442 L3.956,27.442 C3.723,27.442 3.522,27.357 3.353,27.188 C3.183,27.017 3.099,26.817 3.099,26.584 L3.099,7.727 C3.099,7.496 3.183,7.295 3.353,7.125 C3.522,6.956 3.723,6.870 3.956,6.870 L17.670,6.870 C17.902,6.870 18.103,6.956 18.273,7.125 C18.442,7.295 18.527,7.496 18.527,7.727 L18.527,26.584 C18.527,26.817 18.442,27.017 18.273,27.188 ZM12.956,4.299 L8.670,4.299 C8.384,4.299 8.241,4.156 8.241,3.870 C8.241,3.585 8.384,3.442 8.670,3.442 L12.956,3.442 C13.241,3.442 13.384,3.585 13.384,3.870 C13.384,4.156 13.241,4.299 12.956,4.299 L12.956,4.299 ZM20.081,1.031 C19.402,0.353 18.598,0.013 17.670,0.013 L3.956,0.013 C3.027,0.013 2.223,0.353 1.545,1.031 C0.866,1.709 0.527,2.513 0.527,3.442 L0.527,30.870 C0.527,31.799 0.866,32.602 1.545,33.281 C2.223,33.960 3.027,34.298 3.956,34.298 L17.670,34.298 C18.598,34.298 19.402,33.960 20.081,33.281 C20.759,32.602 21.099,31.799 21.099,30.870 L21.099,3.442 C21.099,2.513 20.759,1.709 20.081,1.031 Z"/>
</svg>