<svg 
 xmlns="http://www.w3.org/2000/svg"
 xmlns:xlink="http://www.w3.org/1999/xlink"
 width="32px" height="30px">
<defs>
<filter id="Filter_0">
    <feFlood flood-color="rgb(20, 20, 20)" flood-opacity="1" result="floodOut" />
    <feComposite operator="atop" in="floodOut" in2="SourceGraphic" result="compOut" />
    <feBlend mode="normal" in="compOut" in2="SourceGraphic" />
</filter>

</defs>
<g filter="url(#Filter_0)">
<path fill-rule="evenodd"  fill="rgb(205, 191, 137)"
 d="M0.613,23.972 L0.613,26.543 L7.685,26.543 L7.685,23.972 L0.613,23.972 ZM9.613,21.401 C9.265,21.401 8.964,21.527 8.709,21.783 C8.455,22.037 8.328,22.338 8.328,22.685 L8.328,27.829 C8.328,28.177 8.455,28.478 8.709,28.733 C8.964,28.987 9.265,29.114 9.613,29.114 L14.756,29.114 C15.104,29.114 15.406,28.987 15.660,28.733 C15.914,28.478 16.042,28.177 16.042,27.829 L16.042,22.685 C16.042,22.338 15.914,22.037 15.660,21.783 C15.406,21.527 15.104,21.401 14.756,21.401 L9.613,21.401 ZM0.613,13.686 L0.613,16.257 L17.970,16.257 L17.970,13.686 L0.613,13.686 ZM0.613,3.400 L0.613,5.972 L5.113,5.972 L5.113,3.400 L0.613,3.400 ZM16.685,23.972 L16.685,26.543 L31.470,26.543 L31.470,23.972 L16.685,23.972 ZM7.042,0.829 C6.693,0.829 6.392,0.955 6.138,1.211 C5.883,1.465 5.756,1.766 5.756,2.115 L5.756,7.258 C5.756,7.606 5.883,7.907 6.138,8.161 C6.392,8.416 6.693,8.543 7.042,8.543 L12.185,8.543 C12.533,8.543 12.834,8.416 13.089,8.161 C13.343,7.907 13.470,7.606 13.470,7.258 L13.470,2.115 C13.470,1.766 13.343,1.465 13.089,1.211 C12.834,0.955 12.533,0.829 12.185,0.829 L7.042,0.829 ZM19.899,11.115 C19.551,11.115 19.249,11.242 18.995,11.495 C18.740,11.750 18.613,12.052 18.613,12.400 L18.613,17.543 C18.613,17.892 18.740,18.193 18.995,18.447 C19.249,18.701 19.551,18.829 19.899,18.829 L25.042,18.829 C25.390,18.829 25.691,18.701 25.946,18.447 C26.200,18.193 26.328,17.892 26.328,17.543 L26.328,12.400 C26.328,12.052 26.200,11.750 25.946,11.495 C25.691,11.242 25.390,11.115 25.042,11.115 L19.899,11.115 ZM26.970,13.686 L26.970,16.257 L31.470,16.257 L31.470,13.686 L26.970,13.686 ZM14.113,3.400 L14.113,5.972 L31.470,5.972 L31.470,3.400 L14.113,3.400 Z"/>
</g>
</svg>