<svg 
 xmlns="http://www.w3.org/2000/svg"
 xmlns:xlink="http://www.w3.org/1999/xlink"
 width="24px" height="21px">
<path fill-rule="evenodd"  fill="rgb(144, 144, 144)"
 d="M7.297,0.688 L4.375,3.654 L1.940,6.126 L1.209,6.867 L-0.008,12.057 L1.209,13.292 L10.463,3.901 L7.297,0.688 M20.587,2.956 C20.411,2.956 20.235,3.024 20.100,3.160 L22.535,5.631 C22.804,5.360 22.804,4.914 22.536,4.643 L21.075,3.160 C20.941,3.024 20.764,2.956 20.587,2.956 M3.401,2.956 C3.225,2.956 3.048,3.024 2.914,3.160 L1.453,4.643 C1.185,4.914 1.185,5.360 1.453,5.631 L3.888,3.160 C3.755,3.024 3.577,2.956 3.401,2.956 M15.961,7.361 L11.994,11.386 L8.028,7.361 L5.593,9.833 L9.559,13.858 L5.489,17.988 C5.221,18.260 5.221,18.706 5.489,18.977 L6.950,20.460 C7.085,20.596 7.261,20.664 7.438,20.664 C7.614,20.664 7.790,20.596 7.924,20.460 L11.994,16.329 L16.064,20.460 C16.198,20.596 16.375,20.664 16.551,20.664 C16.727,20.664 16.904,20.596 17.038,20.460 L18.499,18.977 C18.767,18.706 18.767,18.260 18.499,17.988 L14.429,13.858 L18.396,9.833 L15.961,7.361 M16.691,0.688 L13.526,3.901 L22.779,13.292 L23.997,12.057 L22.779,6.867 L22.049,6.126 L19.613,3.654 L16.691,0.688 "/>
</svg>