<svg 
 xmlns="http://www.w3.org/2000/svg"
 xmlns:xlink="http://www.w3.org/1999/xlink"
 width="31px" height="32px">
<defs>
<filter id="Filter_0">
    <feFlood flood-color="rgb(20, 20, 20)" flood-opacity="1" result="floodOut" />
    <feComposite operator="atop" in="floodOut" in2="SourceGraphic" result="compOut" />
    <feBlend mode="normal" in="compOut" in2="SourceGraphic" />
</filter>

</defs>
<g filter="url(#Filter_0)">
<path fill-rule="evenodd"  fill="rgb(205, 191, 137)"
 d="M21.536,27.308 C19.802,28.132 17.970,28.544 16.042,28.544 C14.301,28.544 12.637,28.201 11.050,27.518 C9.463,26.835 8.096,25.922 6.951,24.777 C5.806,23.632 4.892,22.265 4.209,20.678 C3.526,19.090 3.185,17.426 3.185,15.685 C3.185,12.807 4.039,10.236 5.746,7.972 C7.454,5.709 9.653,4.174 12.345,3.371 C10.952,5.581 10.256,7.972 10.256,10.542 C10.256,12.981 10.859,15.237 12.064,17.313 C13.269,19.390 14.910,21.030 16.986,22.234 C19.062,23.441 21.318,24.043 23.756,24.043 C24.506,24.043 25.243,23.983 25.966,23.862 C24.747,25.336 23.271,26.483 21.536,27.308 ZM30.134,21.391 C30.087,21.124 29.970,20.896 29.783,20.708 C29.368,20.293 28.886,20.205 28.336,20.447 C26.863,21.130 25.336,21.472 23.756,21.472 C21.774,21.472 19.946,20.982 18.272,20.005 C16.597,19.028 15.271,17.701 14.294,16.028 C13.316,14.354 12.828,12.524 12.828,10.542 C12.828,9.002 13.132,7.539 13.742,6.153 C14.351,4.767 15.231,3.552 16.383,2.507 C16.825,2.092 16.926,1.609 16.685,1.060 C16.457,0.512 16.048,0.251 15.459,0.277 C13.410,0.358 11.468,0.816 9.633,1.654 C7.798,2.490 6.221,3.592 4.902,4.959 C3.583,6.324 2.538,7.942 1.768,9.809 C0.998,11.678 0.613,13.638 0.613,15.685 C0.613,17.775 1.022,19.771 1.839,21.672 C2.655,23.575 3.754,25.215 5.133,26.594 C6.513,27.974 8.153,29.071 10.055,29.889 C11.957,30.706 13.953,31.114 16.042,31.114 C19.042,31.114 21.811,30.302 24.349,28.673 C26.887,27.047 28.785,24.873 30.044,22.155 C30.151,21.914 30.181,21.660 30.134,21.391 Z"/>
</g>
</svg>