<svg 
 xmlns="http://www.w3.org/2000/svg"
 xmlns:xlink="http://www.w3.org/1999/xlink"
 >
<defs>
<filter id="Filter_0">
    <feFlood flood-color="rgb(20, 20, 20)" flood-opacity="1" result="floodOut" />
    <feComposite operator="atop" in="floodOut" in2="SourceGraphic" result="compOut" />
    <feBlend mode="normal" in="compOut" in2="SourceGraphic" />
</filter>

</defs>
<g filter="url(#Filter_0)">
<path fill-rule="evenodd"  fill="rgb(205, 191, 137)"
 d="M12.651,8.300 C11.580,8.300 10.666,8.678 9.909,9.434 C9.152,10.191 8.774,11.106 8.774,12.176 C8.774,12.739 8.881,13.254 9.095,13.724 C8.144,14.728 7.260,15.832 6.444,17.038 C5.908,17.842 5.412,18.680 4.957,19.549 C4.501,20.421 4.040,21.461 3.571,22.675 C3.102,23.886 2.740,25.132 2.486,26.411 C2.232,27.689 2.034,29.142 1.893,30.770 C1.753,32.397 1.776,34.055 1.964,35.742 C1.990,36.009 2.104,36.234 2.305,36.414 C2.506,36.596 2.740,36.686 3.008,36.686 L3.109,36.686 C3.390,36.658 3.621,36.535 3.802,36.314 C3.983,36.093 4.066,35.835 4.053,35.541 C3.450,29.006 4.803,23.253 8.111,18.284 C8.821,17.226 9.591,16.249 10.421,15.351 C11.104,15.820 11.848,16.054 12.651,16.054 C13.709,16.054 14.620,15.676 15.383,14.919 C16.147,14.163 16.528,13.249 16.528,12.176 C16.528,11.106 16.150,10.191 15.393,9.434 C14.637,8.678 13.723,8.300 12.651,8.300 ZM18.347,2.253 C16.545,1.208 14.586,0.687 12.470,0.687 C10.890,0.687 9.377,0.993 7.930,1.610 C6.484,2.226 5.238,3.057 4.194,4.100 C3.149,5.146 2.315,6.391 1.693,7.837 C1.070,9.284 0.758,10.804 0.758,12.398 C0.758,14.299 1.187,16.074 2.044,17.722 C2.178,17.976 2.382,18.151 2.657,18.244 C2.931,18.338 3.196,18.317 3.450,18.185 C3.705,18.050 3.875,17.849 3.963,17.581 C4.050,17.313 4.026,17.047 3.892,16.777 C3.196,15.383 2.848,13.924 2.848,12.398 C2.848,11.099 3.102,9.854 3.611,8.660 C4.120,7.470 4.803,6.445 5.660,5.587 C6.517,4.731 7.542,4.047 8.734,3.539 C9.926,3.031 11.171,2.775 12.470,2.775 C13.769,2.775 15.015,3.031 16.207,3.539 C17.399,4.047 18.424,4.731 19.281,5.587 C20.138,6.445 20.821,7.470 21.330,8.660 C21.839,9.854 22.093,11.099 22.093,12.398 C22.093,13.696 21.839,14.943 21.330,16.135 C20.821,17.327 20.138,18.351 19.281,19.208 C18.424,20.065 17.399,20.748 16.207,21.257 C15.015,21.767 13.769,22.020 12.470,22.020 C11.707,22.020 10.984,21.933 10.301,21.760 C10.020,21.706 9.758,21.757 9.517,21.910 C9.276,22.065 9.122,22.275 9.055,22.543 C8.988,22.824 9.032,23.090 9.186,23.337 C9.340,23.585 9.557,23.742 9.839,23.809 C10.736,23.996 11.613,24.090 12.470,24.090 C14.586,24.090 16.545,23.567 18.347,22.523 C20.148,21.479 21.571,20.058 22.616,18.264 C23.660,16.468 24.183,14.514 24.183,12.398 C24.183,10.282 23.660,8.323 22.616,6.521 C21.571,4.721 20.148,3.297 18.347,2.253 Z"/>
</g>
</svg>