<svg 
 xmlns="http://www.w3.org/2000/svg"
 xmlns:xlink="http://www.w3.org/1999/xlink"
 width="28px" height="29px">
<path fill-rule="evenodd" 
 d="M19.857,10.553 L18.066,8.763 L22.970,3.858 L24.761,5.649 L19.857,10.553 ZM27.339,5.649 C27.339,5.365 27.239,5.096 27.038,4.896 L23.724,1.581 C23.523,1.380 23.255,1.281 22.970,1.281 C22.686,1.281 22.418,1.380 22.217,1.581 L0.691,23.107 C0.490,23.308 0.389,23.576 0.389,23.861 C0.389,24.146 0.490,24.413 0.691,24.615 L4.005,27.928 C4.206,28.129 4.474,28.230 4.758,28.230 C5.043,28.230 5.311,28.129 5.512,27.928 L27.038,6.402 C27.239,6.201 27.339,5.933 27.339,5.649 ZM4.725,2.469 L4.223,0.828 L3.721,2.469 L2.080,2.970 L3.721,3.473 L4.223,5.114 L4.725,3.473 L6.365,2.970 L4.725,2.469 ZM10.583,5.180 L9.579,1.899 L8.575,5.180 L5.294,6.184 L8.575,7.189 L9.579,10.470 L10.583,7.189 L13.864,6.184 L10.583,5.180 ZM26.151,13.181 L25.648,11.540 L25.146,13.181 L23.506,13.684 L25.146,14.186 L25.648,15.827 L26.151,14.186 L27.791,13.684 L26.151,13.181 ZM15.438,2.469 L14.936,0.828 L14.433,2.469 L12.793,2.970 L14.433,3.473 L14.936,5.114 L15.438,3.473 L17.078,2.970 L15.438,2.469 Z"/>
</svg>