<svg xmlns="http://www.w3.org/2000/svg" xmlns:xlink="http://www.w3.org/1999/xlink" width="12.313" height="10" viewBox="0 0 12.313 10">
  <metadata><?xpacket begin="﻿" id="W5M0MpCehiHzreSzNTczkc9d"?>
<x:xmpmeta xmlns:x="adobe:ns:meta/" x:xmptk="Adobe XMP Core 5.6-c140 79.160451, 2017/05/06-01:08:21        ">
   <rdf:RDF xmlns:rdf="http://www.w3.org/1999/02/22-rdf-syntax-ns#">
      <rdf:Description rdf:about=""/>
   </rdf:RDF>
</x:xmpmeta>
                                                                                                    
                                                                                                    
                                                                                                    
                                                                                                    
                                                                                                    
                                                                                                    
                                                                                                    
                                                                                                    
                                                                                                    
                                                                                                    
                                                                                                    
                                                                                                    
                                                                                                    
                                                                                                    
                                                                                                    
                                                                                                    
                                                                                                    
                                                                                                    
                                                                                                    
                                                                                                    
                           
<?xpacket end="w"?></metadata>
<defs>
    <style>
      .cls-1 {
        fill: #272727;
        fill-rule: evenodd;
        filter: url(#filter);
      }
    </style>
    <filter id="filter" x="0.438" y="0.438" width="12.313" height="10" filterUnits="userSpaceOnUse">
      <feFlood result="flood" flood-color="#909090"/>
      <feComposite result="composite" operator="in" in2="SourceGraphic"/>
      <feBlend result="blend" in2="SourceGraphic"/>
    </filter>
  </defs>
  <path id="icon" class="cls-1" d="M12.736,1.633a5.06,5.06,0,0,1-1.453.391A2.524,2.524,0,0,0,12.393.633a5,5,0,0,1-1.6.61A2.526,2.526,0,0,0,6.424,2.968a2.846,2.846,0,0,0,.063.579A7.172,7.172,0,0,1,1.283.906a2.528,2.528,0,0,0,.781,3.375,2.54,2.54,0,0,1-1.141-.32V3.993A2.525,2.525,0,0,0,2.947,6.469a2.666,2.666,0,0,1-.664.085,3.177,3.177,0,0,1-.477-0.039A2.529,2.529,0,0,0,4.166,8.266,5.052,5.052,0,0,1,1.033,9.344,5.214,5.214,0,0,1,.424,9.312,7.124,7.124,0,0,0,4.3,10.446a7.131,7.131,0,0,0,7.18-7.18c0-.11,0-0.219-0.008-0.328A5.4,5.4,0,0,0,12.736,1.633Z" transform="translate(-0.438 -0.438)"/>
</svg>
