<svg xmlns="http://www.w3.org/2000/svg" width="11" height="9" viewBox="0 0 11 9">
  <metadata><?xpacket begin="﻿" id="W5M0MpCehiHzreSzNTczkc9d"?>
<x:xmpmeta xmlns:x="adobe:ns:meta/" x:xmptk="Adobe XMP Core 5.6-c140 79.160451, 2017/05/06-01:08:21        ">
   <rdf:RDF xmlns:rdf="http://www.w3.org/1999/02/22-rdf-syntax-ns#">
      <rdf:Description rdf:about=""/>
   </rdf:RDF>
</x:xmpmeta>
                                                                                                    
                                                                                                    
                                                                                                    
                                                                                                    
                                                                                                    
                                                                                                    
                                                                                                    
                                                                                                    
                                                                                                    
                                                                                                    
                                                                                                    
                                                                                                    
                                                                                                    
                                                                                                    
                                                                                                    
                                                                                                    
                                                                                                    
                                                                                                    
                                                                                                    
                                                                                                    
                           
<?xpacket end="w"?></metadata>
<defs>
    <style>
      .cls-1 {
        fill: #3a3a3a;
        fill-rule: evenodd;
      }
    </style>
  </defs>
  <path id="icon" class="cls-1" d="M10.457,1.124a3.962,3.962,0,0,1-1.141.306A1.974,1.974,0,0,0,10.187.338,3.911,3.911,0,0,1,8.929.818,1.983,1.983,0,0,0,5.5,2.173a2.227,2.227,0,0,0,.049.453A5.632,5.632,0,0,1,1.464.553,1.984,1.984,0,0,0,2.078,3.2a2.006,2.006,0,0,1-.9-0.251V2.976A1.983,1.983,0,0,0,2.771,4.921a2.155,2.155,0,0,1-.521.067,2.519,2.519,0,0,1-.374-0.031A1.984,1.984,0,0,0,3.728,6.332a3.97,3.97,0,0,1-2.46.847A3.992,3.992,0,0,1,.789,7.153a5.6,5.6,0,0,0,3.043.89A5.6,5.6,0,0,0,9.469,2.406c0-.086,0-0.172-0.006-0.258A4.256,4.256,0,0,0,10.457,1.124Z"/>
</svg>
