<svg 
 xmlns="http://www.w3.org/2000/svg"
 xmlns:xlink="http://www.w3.org/1999/xlink"
 width="37px" height="32px">
<defs>
<filter id="Filter_0">
    <feFlood flood-color="rgb(20, 20, 20)" flood-opacity="1" result="floodOut" />
    <feComposite operator="atop" in="floodOut" in2="SourceGraphic" result="compOut" />
    <feBlend mode="normal" in="compOut" in2="SourceGraphic" />
</filter>

</defs>
<g filter="url(#Filter_0)">
<path fill-rule="evenodd"  fill="rgb(205, 191, 137)"
 d="M30.265,16.811 L18.613,28.041 L6.941,16.790 C4.437,14.286 3.185,11.908 3.185,9.659 C3.185,8.574 3.328,7.617 3.617,6.786 C3.904,5.956 4.273,5.297 4.722,4.808 C5.170,4.318 5.716,3.920 6.359,3.612 C7.002,3.304 7.631,3.096 8.247,2.988 C8.863,2.883 9.519,2.828 10.216,2.828 C10.912,2.828 11.662,2.999 12.466,3.342 C13.270,3.683 14.009,4.112 14.686,4.627 C15.362,5.143 15.941,5.625 16.424,6.073 C16.906,6.522 17.307,6.935 17.629,7.308 C17.870,7.604 18.198,7.750 18.613,7.750 C19.028,7.750 19.357,7.604 19.598,7.308 C19.919,6.935 20.321,6.522 20.803,6.073 C21.285,5.625 21.864,5.143 22.541,4.627 C23.217,4.112 23.957,3.683 24.761,3.342 C25.564,2.999 26.314,2.828 27.011,2.828 C27.707,2.828 28.363,2.883 28.979,2.988 C29.595,3.096 30.225,3.304 30.868,3.612 C31.511,3.920 32.056,4.318 32.505,4.808 C32.954,5.297 33.322,5.956 33.610,6.786 C33.898,7.617 34.042,8.574 34.042,9.659 C34.042,11.908 32.783,14.293 30.265,16.811 L30.265,16.811 ZM34.062,2.748 C32.361,1.088 30.010,0.257 27.011,0.257 C26.180,0.257 25.333,0.401 24.469,0.689 C23.605,0.977 22.802,1.365 22.059,1.855 C21.315,2.344 20.676,2.801 20.140,3.230 C19.604,3.659 19.095,4.114 18.613,4.596 C18.131,4.114 17.622,3.659 17.087,3.230 C16.551,2.801 15.911,2.344 15.168,1.855 C14.425,1.365 13.621,0.977 12.757,0.689 C11.894,0.401 11.046,0.257 10.216,0.257 C7.216,0.257 4.865,1.088 3.165,2.748 C1.464,4.409 0.613,6.712 0.613,9.659 C0.613,10.557 0.771,11.480 1.085,12.432 C1.400,13.383 1.758,14.192 2.160,14.863 C2.562,15.532 3.017,16.185 3.526,16.820 C4.035,17.457 4.407,17.895 4.641,18.137 C4.875,18.378 5.060,18.552 5.194,18.659 L17.729,30.753 C17.970,30.994 18.265,31.114 18.613,31.114 C18.961,31.114 19.256,30.994 19.497,30.753 L32.013,18.699 C35.080,15.633 36.613,12.618 36.613,9.659 C36.613,6.712 35.763,4.409 34.062,2.748 Z"/>
</g>
</svg>