<svg 
 xmlns="http://www.w3.org/2000/svg"
 xmlns:xlink="http://www.w3.org/1999/xlink"
 width="9px" height="5px">
<path fill-rule="evenodd"  fill="rgb(255, 255, 255)"
 d="M8.254,0.899 C8.254,0.837 8.223,0.766 8.176,0.719 L7.785,0.328 C7.738,0.281 7.668,0.250 7.605,0.250 C7.543,0.250 7.473,0.281 7.426,0.328 L4.355,3.398 L1.285,0.328 C1.238,0.281 1.168,0.250 1.106,0.250 C1.035,0.250 0.973,0.281 0.926,0.328 L0.535,0.719 C0.488,0.766 0.457,0.837 0.457,0.899 C0.457,0.960 0.488,1.032 0.535,1.078 L4.176,4.719 C4.223,4.765 4.293,4.797 4.355,4.797 C4.418,4.797 4.488,4.765 4.535,4.719 L8.176,1.078 C8.223,1.032 8.254,0.960 8.254,0.899 Z"/>
</svg>