<svg id="Logo" xmlns="http://www.w3.org/2000/svg" xmlns:xlink="http://www.w3.org/1999/xlink" viewBox="0 0 170 53">
  <metadata><?xpacket begin="﻿" id="W5M0MpCehiHzreSzNTczkc9d"?>
<x:xmpmeta xmlns:x="adobe:ns:meta/" x:xmptk="Adobe XMP Core 5.6-c140 79.160451, 2017/05/06-01:08:21        ">
   <rdf:RDF xmlns:rdf="http://www.w3.org/1999/02/22-rdf-syntax-ns#">
      <rdf:Description rdf:about=""/>
   </rdf:RDF>
</x:xmpmeta>                       
<?xpacket end="w"?></metadata>
  <path id="logo-2" data-name="logo" d="M170,27.93H152.075V25.062H170V27.93Zm-152.075,0H0V25.062H17.925V27.93ZM170,52.994H0V0H170v53ZM3.072,49.9H166.928V3.095H3.072V49.9ZM35.543,37.944L47.6,18.691H36.207V14.6H55.13L42.9,33.855H54.972v4.09H35.543Zm36.129,0,8.443-19.475H74.806V14.6h9.585L94.2,37.944h-4.6l-1.763-4.387H78.04l-1.781,4.387H71.673Zm7.882-8.252h6.733l-3.333-8.31Zm33.372,8.252v-7.36h-2.766V26.5h2.766V14.6H123.95a8.482,8.482,0,0,1,6.009,2.155,7.581,7.581,0,0,1,2.323,5.837,7.573,7.573,0,0,1-2.323,5.834,8.48,8.48,0,0,1-6.009,2.156H117.2v7.36h-4.276ZM117.2,18.691V26.5h6.416a4.8,4.8,0,0,0,3.133-1.022,3.509,3.509,0,0,0,1.253-2.88,3.518,3.518,0,0,0-1.235-2.9,4.84,4.84,0,0,0-3.151-1H117.2Z"/>
</svg>
